<?xml version="1.0" standalone="no"?>
<!DOCTYPE svg PUBLIC "-//W3C//DTD SVG 20010904//EN"
 "http://www.w3.org/TR/2001/REC-SVG-20010904/DTD/svg10.dtd">
<svg version="1.0" xmlns="http://www.w3.org/2000/svg"
 width="584.000000pt" height="531.000000pt" viewBox="0 0 584.000000 531.000000"
 preserveAspectRatio="xMidYMid meet">

<g transform="translate(0.000000,531.000000) scale(0.100000,-0.100000)"
fill="#000000" stroke="none">
<path d="M2494 5285 c-38 -16 -64 -51 -64 -86 0 -61 151 -941 165 -963 17 -25
55 -46 86 -46 35 0 80 30 94 64 13 30 7 74 -65 503 -43 259 -83 480 -89 492
-21 39 -81 56 -127 36z"/>
<path d="M3183 5259 c-18 -5 -40 -20 -48 -32 -8 -13 -57 -222 -110 -466 -89
-416 -94 -444 -81 -476 15 -36 59 -65 98 -65 30 0 85 34 92 57 17 56 186 860
186 887 0 41 -24 75 -66 92 -18 8 -35 14 -36 13 -2 0 -18 -5 -35 -10z"/>
<path d="M1743 5105 c-45 -19 -70 -73 -56 -117 11 -36 537 -801 573 -833 15
-14 36 -20 66 -20 61 0 99 38 99 98 0 39 -21 73 -279 445 -153 222 -288 409
-300 417 -34 22 -69 26 -103 10z"/>
<path d="M4044 4930 c-11 -4 -169 -150 -351 -324 -341 -325 -355 -341 -338
-398 18 -57 82 -90 137 -69 14 5 175 152 357 326 275 262 331 321 336 349 15
79 -67 146 -141 116z"/>
<path d="M1198 4535 c-15 -8 -32 -24 -38 -35 -16 -30 -12 -95 8 -118 33 -39
721 -540 751 -547 35 -7 82 14 105 47 19 27 20 67 4 103 -7 15 -152 129 -371
291 -383 283 -400 292 -459 259z"/>
<path d="M4050 4123 c-19 -10 -291 -167 -603 -347 l-568 -328 -102 1 c-126 3
-1770 -38 -1813 -45 -38 -5 -84 -48 -84 -77 0 -12 -196 -382 -435 -823 -244
-450 -435 -813 -435 -827 0 -28 0 -27 574 -963 280 -458 426 -686 442 -695 21
-11 168 -9 918 10 823 21 895 22 924 7 17 -9 46 -16 64 -16 50 0 292 51 634
134 391 95 462 108 505 96 89 -26 56 -42 922 458 624 360 814 474 829 497 17
29 18 75 18 968 0 794 -2 942 -14 966 -18 35 13 15 -906 546 -426 246 -788
449 -805 452 -18 2 -44 -3 -65 -14z m773 -627 c361 -209 656 -381 654 -382
-14 -12 -1365 -787 -1372 -787 -6 0 -194 106 -419 236 l-408 236 -139 225
c-77 125 -140 230 -142 236 -1 5 247 153 552 329 l554 320 32 -17 c17 -9 327
-188 688 -396z m-1654 -927 c226 -370 409 -674 406 -678 -4 -3 -356 -15 -783
-27 -705 -18 -778 -19 -793 -5 -24 24 -822 1331 -816 1337 5 6 1173 40 1428
43 l146 1 412 -671z m-1754 -171 c226 -369 409 -676 407 -682 -2 -6 -171 -320
-375 -698 -280 -517 -375 -683 -383 -675 -7 7 -194 310 -418 675 l-406 663
377 695 c207 382 379 694 382 694 3 -1 191 -303 416 -672z m4213 -289 l-3
-791 -675 -390 c-371 -214 -681 -392 -687 -395 -10 -4 -13 157 -13 788 l1 794
677 391 c372 216 683 392 690 393 10 1 12 -160 10 -790z m-1808 111 l165 -96
3 -792 c1 -435 0 -792 -3 -792 -8 0 -547 310 -559 321 -5 4 24 67 65 141 40
73 88 162 107 198 19 36 93 172 163 302 140 257 147 278 106 339 -12 19 -40
63 -61 99 -22 36 -91 147 -153 247 -62 100 -113 185 -113 188 0 7 26 -7 280
-155z m-220 -565 c0 -3 -168 -314 -372 -691 -246 -453 -380 -689 -393 -695
-17 -7 -1565 -52 -1571 -46 -4 3 743 1378 753 1388 13 13 1583 57 1583 44z"/>
</g>
</svg>
